<?xml version="1.0" encoding="UTF-8" standalone="no"?>
<!-- Created with Inkscape (http://www.inkscape.org/) -->

<svg
   width="133.51099mm"
   height="132.30392mm"
   viewBox="0 0 133.51099 132.30392"
   version="1.1"
   id="svg5"
   xml:space="preserve"
   xmlns:inkscape="http://www.inkscape.org/namespaces/inkscape"
   xmlns:sodipodi="http://sodipodi.sourceforge.net/DTD/sodipodi-0.dtd"
   xmlns="http://www.w3.org/2000/svg"
   xmlns:svg="http://www.w3.org/2000/svg"><sodipodi:namedview
     id="namedview7"
     pagecolor="#ffffff"
     bordercolor="#000000"
     borderopacity="0.25"
     inkscape:showpageshadow="2"
     inkscape:pageopacity="0.0"
     inkscape:pagecheckerboard="0"
     inkscape:deskcolor="#d1d1d1"
     inkscape:document-units="mm"
     showgrid="false" /><defs
     id="defs2" /><g
     inkscape:label="Capa 1"
     inkscape:groupmode="layer"
     id="layer1"
     transform="translate(-21.887955,-42.035952)"><g
       id="g195"
       transform="translate(-5.6631356,-21.394068)"
       inkscape:export-filename="Login.svg"
       inkscape:export-xdpi="96"
       inkscape:export-ydpi="96"><path
         style="fill:#b3b7c7;stroke-width:1.05833"
         d="m 82.985132,195.24135 c -12.732994,-1.40186 -27.41329,-9.42316 -37.556282,-20.52072 -5.483303,-5.99935 -11.368253,-15.74738 -11.368253,-18.83077 0,-4.35192 1.830183,-5.10031 12.472811,-5.10031 h 9.932813 l 3.34927,3.90332 c 9.1109,10.61807 17.352892,15.60623 28.965989,17.53057 22.81554,3.78067 45.24952,-12.72919 48.89863,-35.98597 4.4637,-28.44839 -20.78992,-53.872915 -48.886335,-49.217187 -11.831702,1.960576 -19.702906,6.722859 -28.978284,17.532607 l -3.34927,3.90333 h -9.932813 c -6.314409,0 -10.395457,-0.46265 -11.202811,-1.27 -2.186886,-2.18689 -1.403667,-6.17506 2.425337,-12.349894 11.083278,-17.873415 28.064091,-28.934038 47.468797,-30.919278 12.468371,-1.275603 26.409119,0.0097 34.810139,3.209496 19.52077,7.435026 37.33786,28.293533 40.02194,46.853766 1.2306,8.50951 1.2306,22.77563 0,31.28514 -2.89122,19.99269 -22.56554,41.54787 -43.97538,48.17945 -6.57185,2.03559 -22.88263,2.92092 -33.096298,1.79645 z m 2.990626,-40.16095 c -0.841868,-0.53262 -1.794368,-3.26376 -2.116666,-6.06921 l -0.585997,-5.10081 -26.280723,-0.52916 c -31.162308,-0.62746 -29.281775,0.25613 -29.281775,-13.75834 0,-14.01446 -1.880533,-13.13087 29.281775,-13.75833 l 26.280723,-0.52917 0.585997,-5.1008 c 0.322298,-2.80545 1.274798,-5.53659 2.116666,-6.06922 3.828628,-2.42224 7.146548,-0.87462 22.245602,10.37627 14.57698,10.86188 15.2684,11.54483 15.2684,15.08125 0,3.53643 -0.69142,4.21937 -15.2684,15.08125 -15.099054,11.2509 -18.416974,12.79851 -22.245602,10.37627 z"
         id="path209" /><path
         style="fill:#949ab1;stroke-width:1.05833"
         d="m 74.277262,192.48245 c -11.112525,-3.78417 -18.632783,-8.67282 -27.17487,-17.66541 -8.489041,-8.93676 -13.569347,-17.88924 -11.910558,-20.98871 0.921071,-1.72104 2.372886,-1.98045 11.083831,-1.98045 9.653418,0 10.111688,0.10756 12.39818,2.90979 8.294692,10.16566 18.380898,16.30219 30.223519,18.38822 5.169126,0.91052 8.099489,0.80915 14.532736,-0.50279 21.26183,-4.3359 35.40549,-21.52147 35.40549,-43.02022 0,-21.49875 -14.14366,-38.684316 -35.40549,-43.020223 -16.72377,-3.410463 -32.539954,2.90976 -44.756255,17.884813 -2.286645,2.80303 -2.744116,2.91041 -12.39818,2.91041 -8.493815,0 -10.176446,-0.28498 -11.023081,-1.86693 -1.921563,-3.59047 3.453131,-12.769487 13.363919,-22.823182 7.516921,-7.625309 15.296966,-12.432727 25.857519,-15.977787 6.906907,-2.318573 9.986229,-2.723761 20.699836,-2.723761 20.271282,0 32.959642,5.160965 46.982532,19.110051 14.12567,14.051334 19.77192,29.574669 18.62172,51.197029 -0.93558,17.58758 -6.48926,29.85589 -19.19925,42.41191 -13.55314,13.38893 -26.50919,18.52982 -46.591605,18.48727 -10.873143,-0.023 -13.952851,-0.429 -20.709993,-2.73003 z M 87.212747,154.4337 c -1.63742,-1.14689 -2.352153,-2.72853 -2.352153,-5.20511 0,-7.26145 1.396092,-6.90571 -27.100728,-6.90571 -31.282232,0 -30.049269,0.5211 -30.049269,-12.7 0,-13.2211 -1.232963,-12.7 30.049269,-12.7 28.511405,0 27.100728,0.36132 27.100728,-6.94132 0,-2.6385 0.684142,-4.04148 2.574864,-5.28033 3.268651,-2.1417 3.494306,-2.02285 21.502222,11.32516 12.61187,9.3483 14.02291,10.71643 14.02291,13.59649 0,2.88006 -1.41104,4.2482 -14.02291,13.5965 -12.420061,9.20612 -17.823132,12.86184 -19.009523,12.86184 -0.199792,0 -1.421726,-0.74139 -2.71541,-1.64752 z"
         id="path207" /><path
         style="fill:#e84f9b;stroke-width:1.05833"
         d="M 79.344961,193.59764 C 70.990284,191.57203 59.802827,185.73033 52.265387,179.45761 45.706648,173.99937 35.11893,159.53299 35.11893,156.02979 c 0,-3.03778 3.311073,-4.18191 12.10233,-4.18191 h 8.008149 l 6.541684,6.91662 c 8.868885,9.37721 18.786495,14.35971 30.017474,15.08047 15.568723,0.99914 30.063153,-5.58858 38.996773,-17.72404 6.39942,-8.69301 8.55886,-15.37855 8.55886,-26.49805 0,-11.08769 -2.159,-17.80446 -8.48524,-26.39803 C 119.67781,88.036332 99.095986,81.424416 81.475386,87.360366 73.382284,90.086735 67.902744,93.823747 60.813441,101.45168 l -5.526321,5.9462 h -8.294316 c -14.022222,0 -14.872959,-2.5754 -5.273201,-15.963369 12.684654,-17.690212 31.679039,-27.374418 53.766553,-27.412648 18.131534,-0.03138 32.771434,6.148912 46.107494,19.464479 6.52194,6.51191 9.49263,10.472731 12.38973,16.519258 6.94218,14.48899 8.83394,29.96839 5.42837,44.4179 -5.58005,23.67567 -24.82889,43.17526 -48.57976,49.21264 -7.73449,1.96608 -23.297554,1.94704 -31.487029,-0.0385 z m 7.68913,-39.57557 c -0.841868,-0.53262 -1.794368,-3.26377 -2.116666,-6.06921 l -0.585997,-5.10081 -26.085057,-0.52917 c -31.624093,-0.64153 -30.535774,-0.18889 -30.535774,-12.7 0,-12.5111 -1.088319,-12.05846 30.535774,-12.7 l 26.085057,-0.52916 0.585997,-5.10081 c 0.582982,-5.07456 2.070217,-7.0229 5.38443,-7.05382 1.623729,-0.0151 25.014965,16.53651 30.277485,21.42437 4.79166,4.45052 4.03996,5.41052 -15.46082,19.74499 -12.904877,9.48602 -15.073134,10.51876 -18.084429,8.61362 z"
         id="path205" /><path
         style="fill:#656e8f;stroke-width:1.05833"
         d="M 79.344961,193.59764 C 70.990284,191.57203 59.802827,185.73033 52.265387,179.45761 45.706648,173.99937 35.11893,159.53299 35.11893,156.02979 c 0,-3.03778 3.311073,-4.18191 12.10233,-4.18191 h 8.008149 l 6.541684,6.91662 c 8.868885,9.37721 18.786495,14.35971 30.017474,15.08047 15.568723,0.99914 30.063153,-5.58858 38.996773,-17.72404 6.39942,-8.69301 8.55886,-15.37855 8.55886,-26.49805 0,-11.08769 -2.159,-17.80446 -8.48524,-26.39803 C 119.67781,88.036332 99.095986,81.424416 81.475386,87.360366 73.382284,90.086735 67.902744,93.823747 60.813441,101.45168 l -5.526321,5.9462 h -8.294316 c -14.022222,0 -14.872959,-2.5754 -5.273201,-15.963369 12.684654,-17.690212 31.679039,-27.374418 53.766553,-27.412648 18.131534,-0.03138 32.771434,6.148912 46.107494,19.464479 6.52194,6.51191 9.49263,10.472731 12.38973,16.519258 6.94218,14.48899 8.83394,29.96839 5.42837,44.4179 -5.58005,23.67567 -24.82889,43.17526 -48.57976,49.21264 -7.73449,1.96608 -23.297554,1.94704 -31.487029,-0.0385 z m 29.603579,-7.35982 c 18.9525,-4.46851 35.1888,-19.42368 41.71308,-38.42172 3.44802,-10.04027 3.44802,-26.34616 0,-36.38643 C 137.50902,73.130652 91.210291,59.103326 59.036717,83.669677 52.237454,88.8613 45.137741,97.923519 46.968312,99.074036 c 2.352437,1.478504 5.366927,-0.168415 12.153948,-6.640134 4.225466,-4.029164 9.412821,-7.600868 14.654107,-10.089943 7.177295,-3.408483 9.30985,-3.910597 18.485424,-4.352431 12.729979,-0.612992 21.828939,1.777995 31.602129,8.304283 31.07173,20.748899 31.08821,65.894229 0.0316,86.633009 -20.368,13.60124 -46.763096,11.05243 -64.932814,-6.27013 -6.611567,-6.30331 -9.654236,-7.958 -11.963466,-6.5061 -1.005641,0.63229 -0.380728,2.11593 2.456135,5.83126 13.150324,17.22246 37.373763,25.46914 59.493135,20.25397 z M 87.034091,154.02207 c -0.841868,-0.53262 -1.794368,-3.26377 -2.116666,-6.06921 l -0.585997,-5.10081 -26.085057,-0.52917 c -31.624093,-0.64153 -30.535774,-0.18889 -30.535774,-12.7 0,-12.5111 -1.088319,-12.05846 30.535774,-12.7 l 26.085057,-0.52916 0.585997,-5.10081 c 0.582982,-5.07456 2.070217,-7.0229 5.38443,-7.05382 1.623729,-0.0152 25.014965,16.53651 30.277485,21.42437 4.79166,4.45052 4.03996,5.41052 -15.46082,19.74499 -12.904877,9.48602 -15.073134,10.51876 -18.084429,8.61362 z m 16.082749,-16.48535 c 5.09323,-3.7618 9.26042,-7.30686 9.26042,-7.87791 0,-1.13082 -17.748714,-14.85259 -19.211393,-14.85259 -0.493317,0 -0.89694,1.60856 -0.89694,3.57458 0,1.96602 -0.634053,4.10079 -1.409007,4.74395 -0.926024,0.76853 -10.630358,1.26642 -28.310416,1.4525 l -26.901407,0.28313 -0.325435,4.49792 -0.325436,4.49792 25.725434,0.0156 c 29.367943,0.0178 30.821069,0.32485 31.34557,6.62331 0.180659,2.16943 0.656909,3.9302 1.058334,3.91282 0.401424,-0.0174 4.897051,-3.10944 9.990276,-6.87123 z"
         id="path203" /><path
         style="fill:#943179;stroke-width:1.05833"
         d="m 78.625881,192.50754 c -17.190109,-4.62285 -32.369034,-16.41899 -40.243363,-31.2747 -3.888663,-7.33635 -2.959024,-8.32662 7.816769,-8.32662 h 9.030122 l 6.525973,6.9 C 88.435493,188.0155 133.28178,174.45284 140.0316,136.1335 142.34628,122.99285 136.99694,107.38568 126.74906,97.38055 108.09538,79.168733 80.088182,80.055998 61.755382,99.439543 l -6.525973,6.900007 h -9.030122 c -10.778219,0 -11.701356,-0.98606 -7.816769,-8.349565 6.620281,-12.549207 21.07161,-24.830458 34.986666,-29.732909 8.283783,-2.918482 27.056336,-4.066088 36.032136,-2.20272 3.28001,0.680928 9.89441,3.138917 14.69866,5.462197 11.78377,5.698502 23.30827,17.081209 28.82766,28.472998 4.62024,9.535969 8.13295,22.334939 8.13295,29.633329 0,7.29839 -3.51271,20.09737 -8.13295,29.63333 -7.35642,15.18335 -24.36074,28.89464 -41.23231,33.24735 -8.1129,2.09305 -25.293545,2.09512 -33.069449,0.004 z m 30.322659,-6.26972 c 18.9525,-4.46851 35.1888,-19.42368 41.71308,-38.42172 3.44802,-10.04027 3.44802,-26.34616 0,-36.38643 C 137.50902,73.130652 91.210291,59.103326 59.036717,83.669677 52.237454,88.8613 45.137741,97.923519 46.968312,99.074036 c 2.352437,1.478504 5.366927,-0.168415 12.153948,-6.640134 4.225466,-4.029164 9.412821,-7.600868 14.654107,-10.089943 7.177295,-3.408483 9.30985,-3.910597 18.485424,-4.352431 12.729979,-0.612992 21.828939,1.777995 31.602129,8.304283 31.07173,20.748899 31.08821,65.894229 0.0316,86.633009 -20.368,13.60124 -46.763096,11.05243 -64.932814,-6.27013 -6.611567,-6.30331 -9.654236,-7.958 -11.963466,-6.5061 -1.005641,0.63229 -0.380728,2.11593 2.456135,5.83126 13.150324,17.22246 37.373763,25.46914 59.493135,20.25397 z M 86.561324,152.29049 c -0.353318,-0.92073 -0.642396,-3.02491 -0.642396,-4.67594 0,-6.61712 1.134011,-6.35 -26.958003,-6.35 -24.370372,0 -25.814721,-0.11131 -28.461769,-2.19348 -2.527995,-1.98852 -2.788559,-2.87136 -2.788559,-9.44819 0,-6.57682 0.260564,-7.45966 2.788559,-9.44818 2.647048,-2.08217 4.091397,-2.19348 28.461769,-2.19348 28.092014,0 26.958003,0.26711 26.958003,-6.35 0,-4.5635 1.041069,-6.35 3.70041,-6.35 2.544613,0 29.610432,19.23596 31.643792,22.48958 1.79668,2.87489 0.15162,4.59381 -15.19282,15.875 -13.814057,10.15605 -18.185678,12.09318 -19.508986,8.64469 z m 16.555516,-14.75377 c 5.09323,-3.7618 9.26042,-7.30686 9.26042,-7.87791 0,-1.13082 -17.748714,-14.85259 -19.211393,-14.85259 -0.493317,0 -0.89694,1.60856 -0.89694,3.57458 0,1.96602 -0.634053,4.10079 -1.409007,4.74395 -0.926024,0.76853 -10.630358,1.26642 -28.310416,1.4525 l -26.901407,0.28313 -0.325435,4.49792 -0.325436,4.49792 25.725434,0.0156 c 29.367943,0.0178 30.821069,0.32485 31.34557,6.62331 0.180659,2.16943 0.656909,3.9302 1.058334,3.91282 0.401424,-0.0174 4.897051,-3.10944 9.990276,-6.87123 z"
         id="path201" /><path
         style="fill:#612667;stroke-width:1.05833"
         d="m 78.625881,192.50754 c -17.190109,-4.62285 -32.369034,-16.41899 -40.243363,-31.2747 -3.888663,-7.33635 -2.959024,-8.32662 7.816769,-8.32662 h 9.030122 l 6.525973,6.9 C 88.435493,188.0155 133.28178,174.45284 140.0316,136.1335 142.34628,122.99285 136.99694,107.38568 126.74906,97.38055 108.09538,79.168733 80.088182,80.055998 61.755382,99.439543 l -6.525973,6.900007 h -9.030122 c -10.778219,0 -11.701356,-0.98606 -7.816769,-8.349565 6.620281,-12.549207 21.07161,-24.830458 34.986666,-29.732909 8.283783,-2.918482 27.056336,-4.066088 36.032136,-2.20272 3.28001,0.680928 9.89441,3.138917 14.69866,5.462197 11.78377,5.698502 23.30827,17.081209 28.82766,28.472998 4.62024,9.535969 8.13295,22.334939 8.13295,29.633329 0,7.29839 -3.51271,20.09737 -8.13295,29.63333 -7.35642,15.18335 -24.36074,28.89464 -41.23231,33.24735 -8.1129,2.09305 -25.293545,2.09512 -33.069449,0.004 z m 30.467249,-5.24512 c 14.38646,-3.39118 27.66678,-12.98176 36.14912,-26.10558 12.13108,-18.76913 12.13108,-44.29879 0,-63.067918 C 124.96504,66.716136 82.810589,60.992583 55.310851,85.878418 49.774926,90.888141 44.64393,97.354151 44.64393,99.32072 c 0,0.367857 1.725247,0.668831 3.833884,0.668831 3.226324,0 4.910276,-1.006912 10.626235,-6.353911 11.096491,-10.380224 21.914846,-14.777458 36.412373,-14.800193 19.014918,-0.02982 35.798218,10.217747 44.681818,27.281873 8.08036,15.52122 8.08036,31.4899 0,47.01113 -8.94752,17.18691 -25.7424,27.31474 -45.241251,27.28187 -13.988039,-0.0236 -25.450148,-4.78392 -35.834613,-14.88251 -5.574427,-5.42097 -6.993651,-6.2716 -10.463791,-6.2716 -2.20806,0 -4.014655,0.30098 -4.014655,0.66884 0,1.96657 5.130996,8.43258 10.666921,13.4423 14.678296,13.28309 34.573099,18.42308 53.782279,13.89507 z M 86.561324,152.29049 c -0.353318,-0.92073 -0.642396,-3.02491 -0.642396,-4.67594 0,-6.61712 1.134011,-6.35 -26.958003,-6.35 -24.370372,0 -25.814721,-0.11131 -28.461769,-2.19348 -2.527995,-1.98852 -2.788559,-2.87136 -2.788559,-9.44819 0,-6.57682 0.260564,-7.45966 2.788559,-9.44818 2.647048,-2.08217 4.091397,-2.19348 28.461769,-2.19348 28.092014,0 26.958003,0.26711 26.958003,-6.35 0,-4.5635 1.041069,-6.35 3.70041,-6.35 2.544613,0 29.610432,19.23596 31.643792,22.48958 1.79668,2.87489 0.15162,4.59381 -15.19282,15.875 -13.814057,10.15605 -18.185678,12.09318 -19.508986,8.64469 z m 18.257536,-14.7919 c 5.32129,-3.9174 9.67507,-7.4897 9.67507,-7.93844 0,-1.13635 -20.308508,-15.81227 -21.880987,-15.81227 -0.750037,0 -1.415483,1.86362 -1.60608,4.49792 l -0.325435,4.49792 -26.901408,0.28313 c -18.275671,0.19235 -27.369995,0.67202 -28.36281,1.49599 -0.920922,0.76429 -1.344173,2.81234 -1.144425,5.5377 l 0.316979,4.32484 26.987498,0.52917 c 14.843125,0.29104 27.582811,0.91446 28.310416,1.38538 0.727604,0.47091 1.322916,2.4156 1.322916,4.32152 0,3.81553 0.831545,5.18992 2.705073,4.47098 0.675474,-0.25921 5.581913,-3.67643 10.903193,-7.59384 z"
         id="path199" /><path
         style="fill:#11184e;stroke-width:1.05833"
         d="m 78.724074,192.10547 c -10.677783,-2.8864 -19.589068,-7.88045 -27.71313,-15.53096 -6.382719,-6.01067 -14.83368,-18.12449 -14.83368,-21.26297 0,-0.99469 2.596249,-1.34699 9.926677,-1.34699 h 9.926677 l 4.022495,4.90892 c 12.524265,15.28422 35.870123,20.62242 53.699877,12.27887 29.99093,-14.03445 36.36918,-52.32791 12.44348,-74.707597 -2.97495,-2.782716 -8.57451,-6.540807 -12.44348,-8.351315 C 95.923236,79.749879 72.577378,85.088077 60.053113,100.37229 l -4.022495,4.90893 h -9.926677 c -7.473749,0 -9.926677,-0.34229 -9.926677,-1.38518 0,-2.7022 7.61384,-14.045459 13.315601,-19.837866 6.770278,-6.87791 14.583692,-11.850391 24.528755,-15.610177 6.196656,-2.34268 8.874305,-2.707671 20.363974,-2.775816 11.299976,-0.06702 14.378916,0.298057 21.113466,2.503473 9.62358,3.15151 21.60318,10.981712 28.10829,18.372367 6.00651,6.824176 12.64203,19.805959 14.28179,27.940989 0.68047,3.37592 1.67243,6.96502 2.20434,7.97576 1.25073,2.37668 1.25073,11.93955 0,14.31622 -0.53191,1.01075 -1.52387,4.59984 -2.20434,7.97576 -1.63223,8.09765 -8.2673,21.10788 -14.2046,27.85276 -6.4241,7.29788 -17.48641,14.66828 -27.09783,18.05427 -10.87877,3.83245 -26.77872,4.43787 -37.862636,1.44169 z m 28.574006,-3.31127 c 3.08459,-0.63452 9.60708,-3.0631 14.49442,-5.39685 16.24284,-7.75609 28.6459,-23.68677 32.39109,-41.60363 1.95427,-9.34915 1.95269,-15.00859 -0.006,-24.34167 -5.82502,-27.742228 -30.92654,-48.20556 -59.049988,-48.138521 -18.564109,0.04425 -37.700089,9.799853 -48.546878,24.749396 -4.234858,5.836677 -3.939919,6.984955 1.794108,6.984955 4.457117,0 5.219327,-0.4399 11.002101,-6.349733 4.386488,-4.482871 8.600208,-7.483316 14.332043,-10.205351 7.07354,-3.35921 9.409283,-3.923113 18.141917,-4.379886 12.345197,-0.645733 21.058437,1.437588 29.817677,7.129361 31.33815,20.363579 31.33815,64.397649 0,84.761229 -8.75924,5.69177 -17.47248,7.77509 -29.817677,7.12936 -8.732634,-0.45678 -11.068377,-1.02068 -18.141917,-4.37989 -5.731835,-2.72204 -9.945555,-5.72248 -14.332043,-10.20535 -5.782774,-5.90984 -6.544984,-6.34974 -11.002101,-6.34974 -5.734027,0 -6.028966,1.14828 -1.794108,6.98496 13.405208,18.47567 38.411533,28.19991 60.717706,23.61136 z M 87.179614,152.62087 c -0.613336,-0.73903 -1.266962,-3.47746 -1.452504,-6.08542 l -0.337349,-4.74173 -26.664413,-0.52917 c -25.800232,-0.51202 -26.73491,-0.60491 -28.839582,-2.86617 -3.112902,-3.34449 -3.112902,-14.2065 0,-17.551 2.104672,-2.26126 3.03935,-2.35415 28.839582,-2.86616 l 26.664413,-0.52917 0.337349,-4.74174 c 0.371067,-5.21567 1.660447,-7.44141 4.290155,-7.40571 1.98844,0.027 29.740745,20.29879 31.090055,22.70986 0.49506,0.88463 0.49506,2.33222 0,3.21685 -1.34931,2.41107 -29.101615,22.68285 -31.090055,22.70985 -0.947373,0.0129 -2.224316,-0.58127 -2.837651,-1.32029 z m 17.625176,-13.98334 c 5.91111,-4.35527 10.74747,-8.41186 10.74747,-9.01465 0,-1.68635 -21.375078,-17.04768 -23.232372,-16.69608 -1.106824,0.20953 -1.744056,1.76667 -1.963896,4.79896 -0.178989,2.46884 -0.417114,4.58013 -0.529166,4.69176 -0.112053,0.11164 -12.824356,0.46882 -28.249564,0.79375 l -28.045832,0.59078 v 5.82083 5.82084 l 28.045832,0.59077 c 15.425208,0.32493 28.164895,0.68212 28.310416,0.79375 0.14552,0.11164 0.264583,2.0286 0.264583,4.25992 0,7.59795 1.312159,7.37849 14.652529,-2.45063 z"
         id="path197" /></g></g></svg>
